<?xml version="1.0" standalone="no"?>
<!DOCTYPE svg PUBLIC "-//W3C//DTD SVG 20010904//EN"
 "http://www.w3.org/TR/2001/REC-SVG-20010904/DTD/svg10.dtd">
<svg version="1.0" xmlns="http://www.w3.org/2000/svg"
 width="400.000000pt" height="400.000000pt" viewBox="0 0 400.000000 400.000000"
 preserveAspectRatio="xMidYMid meet">
<metadata>
Created by potrace 1.14, written by Peter Selinger 2001-2017
</metadata>
<g transform="translate(0.000000,400.000000) scale(0.100000,-0.100000)"
fill="#000000" stroke="none">
<path d="M263 3981 c-104 -38 -179 -107 -231 -211 l-27 -55 0 -1715 0 -1715
29 -58 c36 -75 118 -157 193 -193 l58 -29 1710 0 1710 0 65 31 c83 39 155 111
194 194 l31 65 0 1705 0 1705 -32 67 c-40 85 -106 151 -191 191 l-67 32 -1695
2 c-1632 2 -1697 2 -1747 -16z"/>
</g>
</svg>
